999
dxflib 2.2.0.0
  0
SECTION
  2
HEADER
  9
$ACADVER
  1
AC1015
  9
$HANDSEED
  5
FFFF
  9
$SPLINESEGS
 70
8
  9
$DIMEXE
 40
12.5
  9
$PSVPSCALE
 40
0.0782870787176577
  9
$DIMLUNIT
 70
2
  9
$GRIDMODE
 70
0
  9
$INSUNITS
 70
4
  9
$DIMADEC
 70
0
  9
$DIMASZ
 40
25.0
  9
$DIMGAP
 40
6.25
  9
$DIMTXT
 40
25.0
  9
$GRIDUNIT
 10
0.0
 20
0.0
  9
$DIMEXO
 40
6.25
  9
$LUPREC
 70
0
  9
$PINSBASE
 10
12.4997365793523301
 20
92.0027755844116086
 30
0.0
  9
$DIMAUNIT
 70
0
  9
$AUPREC
 70
0
  9
$PLIMMIN
 10
0.0
 20
0.0
  9
$LUNITS
 70
2
  9
$PLIMMAX
 10
210.0
 20
297.0
  9
$DIMSTYLE
  2
Standard
  9
$AUNITS
 70
0
  0
ENDSEC
  0
SECTION
  2
TABLES
  0
TABLE
  2
VPORT
  5
8
100
AcDbSymbolTable
 70
1
  0
VPORT
  5
30
100
AcDbSymbolTableRecord
100
AcDbViewportTableRecord
  2
*Active
 70
0
 10
0.0
 20
0.0
 11
1.0
 21
1.0
 12
286.3055555555554861
 22
148.5
 13
0.0
 23
0.0
 14
10.0
 24
10.0
 15
10.0
 25
10.0
 16
0.0
 26
0.0
 36
1.0
 17
0.0
 27
0.0
 37
0.0
 40
297.0
 41
1.92798353909465
 42
50.0
 43
0.0
 44
0.0
 50
0.0
 51
0.0
 71
0
 72
100
 73
1
 74
3
 75
1
 76
1
 77
0
 78
0
281
0
 65
1
110
0.0
120
0.0
130
0.0
111
1.0
121
0.0
131
0.0
112
0.0
122
1.0
132
0.0
 79
0
146
0.0
  0
ENDTAB
  0
TABLE
  2
LTYPE
  5
5
100
AcDbSymbolTable
 70
21
  0
LTYPE
  5
14
100
AcDbSymbolTableRecord
100
AcDbLinetypeTableRecord
  2
ByBlock
 70
0
  3

 72
65
 73
0
 40
0.0
  0
LTYPE
  5
15
100
AcDbSymbolTableRecord
100
AcDbLinetypeTableRecord
  2
ByLayer
 70
0
  3

 72
65
 73
0
 40
0.0
  0
LTYPE
  5
16
100
AcDbSymbolTableRecord
100
AcDbLinetypeTableRecord
  2
CONTINUOUS
 70
0
  3
Solid line
 72
65
 73
0
 40
0.0
  0
LTYPE
  5
31
100
AcDbSymbolTableRecord
100
AcDbLinetypeTableRecord
  2
DOT
 70
0
  3
Dot . . . . . . . . . . . . . . . . . . . . . .
 72
65
 73
2
 40
6.3499999999999996
 49
0.0
 74
0
 49
-6.3499999999999996
 74
0
  0
LTYPE
  5
32
100
AcDbSymbolTableRecord
100
AcDbLinetypeTableRecord
  2
DOT2
 70
0
  3
Dot (.5x) .....................................
 72
65
 73
2
 40
3.1749999999999998
 49
0.0
 74
0
 49
-3.1749999999999998
 74
0
  0
LTYPE
  5
33
100
AcDbSymbolTableRecord
100
AcDbLinetypeTableRecord
  2
DOTX2
 70
0
  3
Dot (2x) .  .  .  .  .  .  .  .  .  .  .  .  .
 72
65
 73
2
 40
12.6999999999999993
 49
0.0
 74
0
 49
-12.6999999999999993
 74
0
  0
LTYPE
  5
34
100
AcDbSymbolTableRecord
100
AcDbLinetypeTableRecord
  2
DASHED
 70
0
  3
Dashed __ __ __ __ __ __ __ __ __ __ __ __ __ _
 72
65
 73
2
 40
19.0500000000000007
 49
12.6999999999999993
 74
0
 49
-6.3499999999999996
 74
0
  0
LTYPE
  5
35
100
AcDbSymbolTableRecord
100
AcDbLinetypeTableRecord
  2
DASHED2
 70
0
  3
Dashed (.5x) _ _ _ _ _ _ _ _ _ _ _ _ _ _ _ _ _
 72
65
 73
2
 40
9.5250000000000004
 49
6.3499999999999996
 74
0
 49
-3.1749999999999998
 74
0
  0
LTYPE
  5
36
100
AcDbSymbolTableRecord
100
AcDbLinetypeTableRecord
  2
DASHEDX2
 70
0
  3
Dashed (2x) ____  ____  ____  ____  ____  ___
 72
65
 73
2
 40
38.1000000000000014
 49
25.3999999999999986
 74
0
 49
-12.6999999999999993
 74
0
  0
LTYPE
  5
37
100
AcDbSymbolTableRecord
100
AcDbLinetypeTableRecord
  2
DASHDOT
 70
0
  3
Dash dot __ . __ . __ . __ . __ . __ . __ . __
 72
65
 73
4
 40
25.3999999999999986
 49
12.6999999999999993
 74
0
 49
-6.3499999999999996
 74
0
 49
0.0
 74
0
 49
-6.3499999999999996
 74
0
  0
LTYPE
  5
38
100
AcDbSymbolTableRecord
100
AcDbLinetypeTableRecord
  2
DASHDOT2
 70
0
  3
Dash dot (.5x) _._._._._._._._._._._._._._._.
 72
65
 73
4
 40
12.6999999999999993
 49
6.3499999999999996
 74
0
 49
-3.1749999999999998
 74
0
 49
0.0
 74
0
 49
-3.1749999999999998
 74
0
  0
LTYPE
  5
39
100
AcDbSymbolTableRecord
100
AcDbLinetypeTableRecord
  2
DASHDOTX2
 70
0
  3
Dash dot (2x) ____  .  ____  .  ____  .  ___
 72
65
 73
4
 40
50.7999999999999972
 49
25.3999999999999986
 74
0
 49
-12.6999999999999993
 74
0
 49
0.0
 74
0
 49
-12.6999999999999993
 74
0
  0
LTYPE
  5
3A
100
AcDbSymbolTableRecord
100
AcDbLinetypeTableRecord
  2
DIVIDE
 70
0
  3
Divide ____ . . ____ . . ____ . . ____ . . ____
 72
65
 73
6
 40
31.75
 49
12.6999999999999993
 74
0
 49
-6.3499999999999996
 74
0
 49
0.0
 74
0
 49
-6.3499999999999996
 74
0
 49
0.0
 74
0
 49
-6.3499999999999996
 74
0
  0
LTYPE
  5
3B
100
AcDbSymbolTableRecord
100
AcDbLinetypeTableRecord
  2
DIVIDE2
 70
0
  3
Divide (.5x) __..__..__..__..__..__..__..__.._
 72
65
 73
6
 40
15.875
 49
6.3499999999999996
 74
0
 49
-3.1749999999999998
 74
0
 49
0.0
 74
0
 49
-3.1749999999999998
 74
0
 49
0.0
 74
0
 49
-3.1749999999999998
 74
0
  0
LTYPE
  5
3C
100
AcDbSymbolTableRecord
100
AcDbLinetypeTableRecord
  2
DIVIDEX2
 70
0
  3
Divide (2x) ________  .  .  ________  .  .  _
 72
65
 73
6
 40
63.5
 49
25.3999999999999986
 74
0
 49
-12.6999999999999993
 74
0
 49
0.0
 74
0
 49
-12.6999999999999993
 74
0
 49
0.0
 74
0
 49
-12.6999999999999993
 74
0
  0
LTYPE
  5
3D
100
AcDbSymbolTableRecord
100
AcDbLinetypeTableRecord
  2
CENTER
 70
0
  3
Center ____ _ ____ _ ____ _ ____ _ ____ _ ____
 72
65
 73
4
 40
50.7999999999999972
 49
31.75
 74
0
 49
-6.3499999999999996
 74
0
 49
6.3499999999999996
 74
0
 49
-6.3499999999999996
 74
0
  0
LTYPE
  5
3E
100
AcDbSymbolTableRecord
100
AcDbLinetypeTableRecord
  2
CENTER2
 70
0
  3
Center (.5x) ___ _ ___ _ ___ _ ___ _ ___ _ ___
 72
65
 73
4
 40
28.5749999999999993
 49
19.0500000000000007
 74
0
 49
-3.1749999999999998
 74
0
 49
3.1749999999999998
 74
0
 49
-3.1749999999999998
 74
0
  0
LTYPE
  5
3F
100
AcDbSymbolTableRecord
100
AcDbLinetypeTableRecord
  2
CENTERX2
 70
0
  3
Center (2x) ________  __  ________  __  _____
 72
65
 73
4
 40
101.5999999999999943
 49
63.5
 74
0
 49
-12.6999999999999993
 74
0
 49
12.6999999999999993
 74
0
 49
-12.6999999999999993
 74
0
  0
LTYPE
  5
40
100
AcDbSymbolTableRecord
100
AcDbLinetypeTableRecord
  2
BORDER
 70
0
  3
Border __ __ . __ __ . __ __ . __ __ . __ __ .
 72
65
 73
6
 40
44.4500000000000028
 49
12.6999999999999993
 74
0
 49
-6.3499999999999996
 74
0
 49
12.6999999999999993
 74
0
 49
-6.3499999999999996
 74
0
 49
0.0
 74
0
 49
-6.3499999999999996
 74
0
  0
LTYPE
  5
41
100
AcDbSymbolTableRecord
100
AcDbLinetypeTableRecord
  2
BORDER2
 70
0
  3
Border (.5x) __.__.__.__.__.__.__.__.__.__.__.
 72
65
 73
6
 40
22.2250000000000014
 49
6.3499999999999996
 74
0
 49
-3.1749999999999998
 74
0
 49
6.3499999999999996
 74
0
 49
-3.1749999999999998
 74
0
 49
0.0
 74
0
 49
-3.1749999999999998
 74
0
  0
LTYPE
  5
42
100
AcDbSymbolTableRecord
100
AcDbLinetypeTableRecord
  2
BORDERX2
 70
0
  3
Border (2x) ____  ____  .  ____  ____  .  ___
 72
65
 73
6
 40
88.9000000000000057
 49
25.3999999999999986
 74
0
 49
-12.6999999999999993
 74
0
 49
25.3999999999999986
 74
0
 49
-12.6999999999999993
 74
0
 49
0.0
 74
0
 49
-12.6999999999999993
 74
0
  0
ENDTAB
  0
TABLE
  2
LAYER
  5
2
100
AcDbSymbolTable
 70
3
  0
LAYER
  5
10
100
AcDbSymbolTableRecord
100
AcDbLayerTableRecord
  2
0
 70
0
 62
7
  6
CONTINUOUS
290
1
370
0
390
F
  0
LAYER
  5
43
100
AcDbSymbolTableRecord
100
AcDbLayerTableRecord
  2
dimensions
 70
5
 62
4
  6
CONTINUOUS
290
1
370
13
390
F
  0
LAYER
  5
44
100
AcDbSymbolTableRecord
100
AcDbLayerTableRecord
  2
dimensions2
 70
0
 62
1
  6
CONTINUOUS
290
1
370
13
390
F
  0
ENDTAB
  0
TABLE
  2
STYLE
  5
3
100
AcDbSymbolTable
 70
1
  0
STYLE
  5
11
100
AcDbSymbolTableRecord
100
AcDbTextStyleTableRecord
  2
Standard
 70
0
 40
0.0
 41
0.75
 50
0.0
 71
0
 42
2.5
  3
txt
  4

  0
ENDTAB
  0
TABLE
  2
VIEW
  5
6
100
AcDbSymbolTable
 70
0
  0
ENDTAB
  0
TABLE
  2
UCS
  5
7
100
AcDbSymbolTable
 70
0
  0
ENDTAB
  0
TABLE
  2
APPID
  5
9
100
AcDbSymbolTable
 70
1
  0
APPID
  5
12
100
AcDbSymbolTableRecord
100
AcDbRegAppTableRecord
  2
ACAD
 70
0
  0
ENDTAB
  0
TABLE
  2
DIMSTYLE
  5
A
100
AcDbSymbolTable
 70
1
100
AcDbDimStyleTable
 71
0
  0
DIMSTYLE
105
27
100
AcDbSymbolTableRecord
100
AcDbDimStyleTableRecord
  2
Standard
 41
25.0
 42
6.25
 43
3.75
 44
12.5
 70
0
 73
0
 74
0
 77
1
 78
8
140
25.0
141
2.5
143
0.03937007874016
147
6.25
171
3
172
1
271
2
272
2
274
3
278
44
283
0
284
8
340
11
  0
ENDTAB
  0
TABLE
  2
BLOCK_RECORD
  5
1
100
AcDbSymbolTable
 70
1
  0
BLOCK_RECORD
  5
1F
100
AcDbSymbolTableRecord
100
AcDbBlockTableRecord
  2
*Model_Space
340
22
  0
BLOCK_RECORD
  5
1B
100
AcDbSymbolTableRecord
100
AcDbBlockTableRecord
  2
*Paper_Space
340
1E
  0
BLOCK_RECORD
  5
23
100
AcDbSymbolTableRecord
100
AcDbBlockTableRecord
  2
*Paper_Space0
340
26
  0
ENDTAB
  0
ENDSEC
  0
SECTION
  2
BLOCKS
  0
BLOCK
  5
20
100
AcDbEntity
  8
0
100
AcDbBlockBegin
  2
*Model_Space
 70
0
 10
0.0
 20
0.0
 30
0.0
  3
*Model_Space
  1

  0
ENDBLK
  5
21
100
AcDbEntity
  8
0
100
AcDbBlockEnd
  0
BLOCK
  5
1C
100
AcDbEntity
 67
1
  8
0
100
AcDbBlockBegin
  2
*Paper_Space
 70
0
 10
0.0
 20
0.0
 30
0.0
  3
*Paper_Space
  1

  0
ENDBLK
  5
1D
100
AcDbEntity
 67
1
  8
0
100
AcDbBlockEnd
  0
BLOCK
  5
24
100
AcDbEntity
  8
0
100
AcDbBlockBegin
  2
*Paper_Space0
 70
0
 10
0.0
 20
0.0
 30
0.0
  3
*Paper_Space0
  1

  0
ENDBLK
  5
25
100
AcDbEntity
  8
0
100
AcDbBlockEnd
  0
ENDSEC
  0
SECTION
  2
ENTITIES
  0
POINT
  5
45
100
AcDbEntity
100
AcDbPoint
  8
0
 62
256
370
-1
  6
ByLayer
 10
0.0
 20
0.0
 30
0.0
  0
LINE
  5
46
100
AcDbEntity
100
AcDbLine
  8
0
 62
256
370
-1
  6
ByLayer
 10
0.0
 20
0.0
 30
0.0
 11
2165.0
 21
0.0
 31
0.0
  0
LINE
  5
47
100
AcDbEntity
100
AcDbLine
  8
0
 62
256
370
-1
  6
ByLayer
 10
2165.0
 20
0.0
 30
0.0
 11
2165.0
 21
1140.0
 31
0.0
  0
LINE
  5
48
100
AcDbEntity
100
AcDbLine
  8
0
 62
256
370
-1
  6
ByLayer
 10
2165.0
 20
1140.0
 30
0.0
 11
0.0
 21
1140.0
 31
0.0
  0
LINE
  5
49
100
AcDbEntity
100
AcDbLine
  8
0
 62
256
370
-1
  6
ByLayer
 10
0.0
 20
1140.0
 30
0.0
 11
0.0
 21
0.0
 31
0.0
  0
LINE
  5
4A
100
AcDbEntity
100
AcDbLine
  8
0
 62
256
370
-1
  6
ByLayer
 10
0.0
 20
0.0
 30
0.0
 11
0.0
 21
0.0
 31
0.0
  0
LINE
  5
4B
100
AcDbEntity
100
AcDbLine
  8
0
 62
256
370
-1
  6
ByLayer
 10
50.0
 20
320.0
 30
0.0
 11
185.0
 21
50.0
 31
0.0
  0
LINE
  5
4C
100
AcDbEntity
100
AcDbLine
  8
0
 62
256
370
-1
  6
ByLayer
 10
185.0
 20
50.0
 30
0.0
 11
375.0
 21
50.0
 31
0.0
  0
LINE
  5
4D
100
AcDbEntity
100
AcDbLine
  8
0
 62
256
370
-1
  6
ByLayer
 10
375.0
 20
50.0
 30
0.0
 11
375.0
 21
1090.0
 31
0.0
  0
LINE
  5
4E
100
AcDbEntity
100
AcDbLine
  8
0
 62
256
370
-1
  6
ByLayer
 10
375.0
 20
1090.0
 30
0.0
 11
175.0
 21
1090.0
 31
0.0
  0
LINE
  5
4F
100
AcDbEntity
100
AcDbLine
  8
0
 62
256
370
-1
  6
ByLayer
 10
175.0
 20
1090.0
 30
0.0
 11
50.0
 21
870.0
 31
0.0
  0
LINE
  5
50
100
AcDbEntity
100
AcDbLine
  8
0
 62
256
370
-1
  6
ByLayer
 10
50.0
 20
870.0
 30
0.0
 11
50.0
 21
320.0
 31
0.0
  0
LINE
  5
51
100
AcDbEntity
100
AcDbLine
  8
0
 62
256
370
-1
  6
ByLayer
 10
50.0
 20
320.0
 30
0.0
 11
50.0
 21
320.0
 31
0.0
  0
LINE
  5
52
100
AcDbEntity
100
AcDbLine
  8
0
 62
256
370
-1
  6
ByLayer
 10
567.0
 20
50.0
 30
0.0
 11
972.0
 21
50.0
 31
0.0
  0
LINE
  5
53
100
AcDbEntity
100
AcDbLine
  8
0
 62
256
370
-1
  6
ByLayer
 10
972.0
 20
50.0
 30
0.0
 11
972.0
 21
1090.0
 31
0.0
  0
LINE
  5
54
100
AcDbEntity
100
AcDbLine
  8
0
 62
256
370
-1
  6
ByLayer
 10
972.0
 20
1090.0
 30
0.0
 11
567.0
 21
1090.0
 31
0.0
  0
LINE
  5
55
100
AcDbEntity
100
AcDbLine
  8
0
 62
256
370
-1
  6
ByLayer
 10
567.0
 20
1090.0
 30
0.0
 11
567.0
 21
50.0
 31
0.0
  0
LINE
  5
56
100
AcDbEntity
100
AcDbLine
  8
0
 62
256
370
-1
  6
ByLayer
 10
567.0
 20
50.0
 30
0.0
 11
567.0
 21
50.0
 31
0.0
  0
LINE
  5
57
100
AcDbEntity
100
AcDbLine
  8
0
 62
256
370
-1
  6
ByLayer
 10
1169.0
 20
50.0
 30
0.0
 11
1577.0
 21
50.0
 31
0.0
  0
LINE
  5
58
100
AcDbEntity
100
AcDbLine
  8
0
 62
256
370
-1
  6
ByLayer
 10
1577.0
 20
50.0
 30
0.0
 11
1577.0
 21
1090.0
 31
0.0
  0
LINE
  5
59
100
AcDbEntity
100
AcDbLine
  8
0
 62
256
370
-1
  6
ByLayer
 10
1577.0
 20
1090.0
 30
0.0
 11
1169.0
 21
1090.0
 31
0.0
  0
LINE
  5
5A
100
AcDbEntity
100
AcDbLine
  8
0
 62
256
370
-1
  6
ByLayer
 10
1169.0
 20
1090.0
 30
0.0
 11
1169.0
 21
50.0
 31
0.0
  0
LINE
  5
5B
100
AcDbEntity
100
AcDbLine
  8
0
 62
256
370
-1
  6
ByLayer
 10
1169.0
 20
50.0
 30
0.0
 11
1169.0
 21
50.0
 31
0.0
  0
LINE
  5
5C
100
AcDbEntity
100
AcDbLine
  8
0
 62
256
370
-1
  6
ByLayer
 10
1785.0
 20
50.0
 30
0.0
 11
1965.0
 21
50.0
 31
0.0
  0
LINE
  5
5D
100
AcDbEntity
100
AcDbLine
  8
0
 62
256
370
-1
  6
ByLayer
 10
1965.0
 20
50.0
 30
0.0
 11
2115.0
 21
280.0
 31
0.0
  0
LINE
  5
5E
100
AcDbEntity
100
AcDbLine
  8
0
 62
256
370
-1
  6
ByLayer
 10
2115.0
 20
280.0
 30
0.0
 11
2115.0
 21
880.0
 31
0.0
  0
LINE
  5
5F
100
AcDbEntity
100
AcDbLine
  8
0
 62
256
370
-1
  6
ByLayer
 10
2115.0
 20
880.0
 30
0.0
 11
1985.0
 21
1100.0
 31
0.0
  0
LINE
  5
60
100
AcDbEntity
100
AcDbLine
  8
0
 62
256
370
-1
  6
ByLayer
 10
1985.0
 20
1100.0
 30
0.0
 11
1785.0
 21
1100.0
 31
0.0
  0
LINE
  5
61
100
AcDbEntity
100
AcDbLine
  8
0
 62
256
370
-1
  6
ByLayer
 10
1785.0
 20
1100.0
 30
0.0
 11
1785.0
 21
50.0
 31
0.0
  0
DIMENSION
  5
62
100
AcDbEntity
  8
dimensions
 62
256
370
-1
  6
ByLayer
100
AcDbDimension
 10
50.0
 20
570.0
 30
0.0
 11
212.5
 21
588.75
 31
0.0
 70
0
 71
5
 72
1
 41
1.0
 42
0.0
  1

  3
Standard
100
AcDbAlignedDimension
 13
375.0
 23
570.0
 33
0.0
 14
50.0
 24
595.0
 34
0.0
 50
0.0
100
AcDbRotatedDimension
  0
DIMENSION
  5
63
100
AcDbEntity
  8
dimensions
 62
256
370
-1
  6
ByLayer
100
AcDbDimension
 10
567.0
 20
570.0
 30
0.0
 11
769.5
 21
588.75
 31
0.0
 70
0
 71
5
 72
1
 41
1.0
 42
0.0
  1

  3
Standard
100
AcDbAlignedDimension
 13
972.0
 23
570.0
 33
0.0
 14
567.0
 24
570.0
 34
0.0
 50
0.0
100
AcDbRotatedDimension
  0
DIMENSION
  5
64
100
AcDbEntity
  8
dimensions
 62
256
370
-1
  6
ByLayer
100
AcDbDimension
 10
1169.0
 20
575.0
 30
0.0
 11
1373.0
 21
593.75
 31
0.0
 70
0
 71
5
 72
1
 41
1.0
 42
0.0
  1

  3
Standard
100
AcDbAlignedDimension
 13
1577.0
 23
570.0
 33
0.0
 14
1169.0
 24
570.0
 34
0.0
 50
0.0
100
AcDbRotatedDimension
  0
DIMENSION
  5
65
100
AcDbEntity
  8
dimensions
 62
256
370
-1
  6
ByLayer
100
AcDbDimension
 10
2115.0
 20
580.0
 30
0.0
 11
1950.0
 21
598.75
 31
0.0
 70
0
 71
5
 72
1
 41
1.0
 42
0.0
  1

  3
Standard
100
AcDbAlignedDimension
 13
1785.0
 23
575.0
 33
0.0
 14
2115.0
 24
580.0
 34
0.0
 50
0.0
100
AcDbRotatedDimension
  0
DIMENSION
  5
66
100
AcDbEntity
  8
dimensions
 62
256
370
-1
  6
ByLayer
100
AcDbDimension
 10
2115.0
 20
880.0
 30
0.0
 11
0.0
 21
0.0
 31
0.0
 70
2
 71
5
 72
1
 41
1.0
 42
0.0
  1

  3
Standard
100
AcDb2LineAngularDimension
 13
2115.0
 23
280.0
 33
0.0
 14
1965.0
 24
50.0
 34
0.0
 15
2115.0
 25
280.0
 35
0.0
 16
2000.0
 26
300.0
 36
0.0
  0
DIMENSION
  5
67
100
AcDbEntity
  8
dimensions
 62
256
370
-1
  6
ByLayer
100
AcDbDimension
 10
2115.0
 20
280.0
 30
0.0
 11
0.0
 21
0.0
 31
0.0
 70
2
 71
5
 72
1
 41
1.0
 42
0.0
  1

  3
Standard
100
AcDb2LineAngularDimension
 13
2115.0
 23
880.0
 33
0.0
 14
1985.0
 24
1100.0
 34
0.0
 15
2115.0
 25
880.0
 35
0.0
 16
2000.0
 26
900.0
 36
0.0
  0
DIMENSION
  5
68
100
AcDbEntity
  8
dimensions
 62
256
370
-1
  6
ByLayer
100
AcDbDimension
 10
175.0
 20
1090.0
 30
0.0
 11
0.0
 21
0.0
 31
0.0
 70
2
 71
5
 72
1
 41
1.0
 42
0.0
  1

  3
Standard
100
AcDb2LineAngularDimension
 13
50.0
 23
870.0
 33
0.0
 14
50.0
 24
320.0
 34
0.0
 15
50.0
 25
870.0
 35
0.0
 16
200.0
 26
900.0
 36
0.0
  0
DIMENSION
  5
69
100
AcDbEntity
  8
dimensions
 62
256
370
-1
  6
ByLayer
100
AcDbDimension
 10
185.0
 20
50.0
 30
0.0
 11
0.0
 21
0.0
 31
0.0
 70
2
 71
5
 72
1
 41
1.0
 42
0.0
  1

  3
Standard
100
AcDb2LineAngularDimension
 13
50.0
 23
320.0
 33
0.0
 14
50.0
 24
870.0
 34
0.0
 15
50.0
 25
320.0
 35
0.0
 16
200.0
 26
300.0
 36
0.0
  0
DIMENSION
  5
6A
100
AcDbEntity
  8
dimensions
 62
256
370
-1
  6
ByLayer
100
AcDbDimension
 10
375.0
 20
1090.0
 30
0.0
 11
0.0
 21
0.0
 31
0.0
 70
2
 71
5
 72
1
 41
1.0
 42
0.0
  1

  3
Standard
100
AcDb2LineAngularDimension
 13
175.0
 23
1090.0
 33
0.0
 14
50.0
 24
870.0
 34
0.0
 15
175.0
 25
1090.0
 35
0.0
 16
300.0
 26
1000.0
 36
0.0
  0
DIMENSION
  5
6B
100
AcDbEntity
  8
dimensions
 62
256
370
-1
  6
ByLayer
100
AcDbDimension
 10
2049.2588567312368468
 20
991.2542424548300914
 30
0.0
 11
0.0
 21
0.0
 31
0.0
 70
2
 71
5
 72
1
 41
1.0
 42
0.0
  1

  3
Standard
100
AcDb2LineAngularDimension
 13
1985.0
 23
1100.0
 33
0.0
 14
1785.0
 24
1100.0
 34
0.0
 15
1981.8204417992085382
 25
1105.3807908013395718
 35
0.0
 16
2000.0
 26
1000.0
 36
0.0
  0
DIMENSION
  5
6C
100
AcDbEntity
  8
dimensions
 62
256
370
-1
  6
ByLayer
100
AcDbDimension
 10
567.0
 20
570.0
 30
0.0
 11
471.0
 21
588.75
 31
0.0
 70
0
 71
5
 72
1
 41
1.0
 42
0.0
  1

  3
Standard
100
AcDbAlignedDimension
 13
375.0
 23
570.0
 33
0.0
 14
567.0
 24
570.0
 34
0.0
 50
0.0
100
AcDbRotatedDimension
  0
DIMENSION
  5
6D
100
AcDbEntity
  8
dimensions
 62
256
370
-1
  6
ByLayer
100
AcDbDimension
 10
1169.0
 20
570.0
 30
0.0
 11
1070.5
 21
588.75
 31
0.0
 70
0
 71
5
 72
1
 41
1.0
 42
0.0
  1

  3
Standard
100
AcDbAlignedDimension
 13
972.0
 23
570.0
 33
0.0
 14
1169.0
 24
570.0
 34
0.0
 50
0.0
100
AcDbRotatedDimension
  0
DIMENSION
  5
6E
100
AcDbEntity
  8
dimensions
 62
256
370
-1
  6
ByLayer
100
AcDbDimension
 10
1785.0
 20
575.0
 30
0.0
 11
1681.0
 21
593.75
 31
0.0
 70
0
 71
5
 72
1
 41
1.0
 42
0.0
  1

  3
Standard
100
AcDbAlignedDimension
 13
1577.0
 23
570.0
 33
0.0
 14
1785.0
 24
575.0
 34
0.0
 50
0.0
100
AcDbRotatedDimension
  0
DIMENSION
  5
6F
100
AcDbEntity
  8
dimensions
 62
256
370
-1
  6
ByLayer
100
AcDbDimension
 10
2115.0
 20
-103.3232628398806128
 30
0.0
 11
1082.5
 21
-84.5732628398806128
 31
0.0
 70
0
 71
5
 72
1
 41
1.0
 42
0.0
  1

  3
Standard
100
AcDbAlignedDimension
 13
50.0
 23
320.0
 33
0.0
 14
2115.0
 24
280.0
 34
0.0
 50
0.0
100
AcDbRotatedDimension
  0
DIMENSION
  5
70
100
AcDbEntity
  8
dimensions
 62
256
370
-1
  6
ByLayer
100
AcDbDimension
 10
2165.0
 20
-203.2024169184319078
 30
0.0
 11
1082.5
 21
-184.4524169184319078
 31
0.0
 70
0
 71
5
 72
1
 41
1.0
 42
0.0
  1

  3
Standard
100
AcDbAlignedDimension
 13
0.0
 23
0.0
 33
0.0
 14
2165.0
 24
0.0
 34
0.0
 50
0.0
100
AcDbRotatedDimension
  0
DIMENSION
  5
71
100
AcDbEntity
  8
dimensions
 62
256
370
-1
  6
ByLayer
100
AcDbDimension
 10
2245.5589123867389389
 20
280.0
 30
0.0
 11
2226.8089123867389389
 21
580.0
 31
0.0
 70
0
 71
5
 72
1
 41
1.0
 42
0.0
  1

  3
Standard
100
AcDbAlignedDimension
 13
2115.0
 23
880.0
 33
0.0
 14
2115.0
 24
280.0
 34
0.0
 50
90.0
100
AcDbRotatedDimension
  0
DIMENSION
  5
72
100
AcDbEntity
  8
dimensions
 62
256
370
-1
  6
ByLayer
100
AcDbDimension
 10
2348.8821752266198928
 20
49.9999999999999432
 30
0.0
 11
2330.1321752266198928
 21
575.0
 31
0.0
 70
0
 71
5
 72
1
 41
1.0
 42
0.0
  1

  3
Standard
100
AcDbAlignedDimension
 13
1985.0
 23
1100.0
 33
0.0
 14
1965.0
 24
50.0
 34
0.0
 50
90.0
100
AcDbRotatedDimension
  0
DIMENSION
  5
73
100
AcDbEntity
  8
dimensions
 62
256
370
-1
  6
ByLayer
100
AcDbDimension
 10
2448.5460725075881783
 20
-0.0000000000000347
 30
0.0
 11
2429.7960725075881783
 21
570.0
 31
0.0
 70
0
 71
5
 72
1
 41
1.0
 42
0.0
  1

  3
Standard
100
AcDbAlignedDimension
 13
2165.0
 23
1140.0
 33
0.0
 14
2165.0
 24
0.0
 34
0.0
 50
90.0
100
AcDbRotatedDimension
  0
DIMENSION
  5
74
100
AcDbEntity
  8
dimensions2
 62
256
370
-1
  6
ByLayer
100
AcDbDimension
 10
185.0
 20
50.0
 30
0.0
 11
0.0
 21
0.0
 31
0.0
 70
2
 71
5
 72
1
 41
1.0
 42
0.0
  1

  3
Standard
100
AcDb2LineAngularDimension
 13
50.0
 23
320.0
 33
0.0
 14
50.0
 24
870.0
 34
0.0
 15
50.0
 25
320.0
 35
0.0
 16
142.0694864048359705
 26
357.3262839879207604
 36
0.0
  0
DIMENSION
  5
75
100
AcDbEntity
  8
dimensions2
 62
256
370
-1
  6
ByLayer
100
AcDbDimension
 10
375.0
 20
50.0
 30
0.0
 11
0.0
 21
0.0
 31
0.0
 70
2
 71
5
 72
1
 41
1.0
 42
0.0
  1

  3
Standard
100
AcDb2LineAngularDimension
 13
185.0
 23
50.0
 33
0.0
 14
50.0
 24
320.0
 34
0.0
 15
185.0
 25
50.0
 35
0.0
 16
279.8338368580102156
 26
137.7643504531742735
 36
0.0
  0
DIMENSION
  5
76
100
AcDbEntity
  8
dimensions2
 62
256
370
-1
  6
ByLayer
100
AcDbDimension
 10
175.0
 20
1090.0
 30
0.0
 11
0.0
 21
0.0
 31
0.0
 70
2
 71
5
 72
1
 41
1.0
 42
0.0
  1

  3
Standard
100
AcDb2LineAngularDimension
 13
50.0000000000000355
 23
876.25
 33
0.0
 14
50.0000000000000071
 24
431.8480840439169697
 34
0.0
 15
50.0
 25
870.0
 35
0.0
 16
124.8489425981891827
 26
779.2296072507670033
 36
0.0
  0
DIMENSION
  5
77
100
AcDbEntity
  8
dimensions2
 62
256
370
-1
  6
ByLayer
100
AcDbDimension
 10
375.0
 20
1090.0
 30
0.0
 11
0.0
 21
0.0
 31
0.0
 70
2
 71
5
 72
1
 41
1.0
 42
0.0
  1

  3
Standard
100
AcDb2LineAngularDimension
 13
175.0
 23
1090.0
 33
0.0
 14
50.0
 24
870.0
 34
0.0
 15
175.0
 25
1090.0
 35
0.0
 16
249.6978851963783654
 26
1003.0966767371751303
 36
0.0
  0
DIMENSION
  5
78
100
AcDbEntity
  8
dimensions2
 62
256
370
-1
  6
ByLayer
100
AcDbDimension
 10
2115.0
 20
280.0
 30
0.0
 11
0.0
 21
0.0
 31
0.0
 70
2
 71
5
 72
1
 41
1.0
 42
0.0
  1

  3
Standard
100
AcDb2LineAngularDimension
 13
2115.0
 23
880.0
 33
0.0
 14
1985.0
 24
1100.0
 34
0.0
 15
2115.0
 25
880.0
 35
0.0
 16
2096.6012084592457541
 26
766.314199395781884
 36
0.0
  0
DIMENSION
  5
79
100
AcDbEntity
  8
dimensions2
 62
256
370
-1
  6
ByLayer
100
AcDbDimension
 10
2115.0
 20
880.0
 30
0.0
 11
0.0
 21
0.0
 31
0.0
 70
2
 71
5
 72
1
 41
1.0
 42
0.0
  1

  3
Standard
100
AcDb2LineAngularDimension
 13
1985.0
 23
1100.0
 33
0.0
 14
1785.0
 24
1100.0
 34
0.0
 15
1985.0
 25
1100.0
 35
0.0
 16
1950.2265861027483425
 26
998.7915407855134617
 36
0.0
  0
DIMENSION
  5
7A
100
AcDbEntity
  8
dimensions2
 62
256
370
-1
  6
ByLayer
100
AcDbDimension
 10
1965.0
 20
50.0
 30
0.0
 11
0.0
 21
0.0
 31
0.0
 70
2
 71
5
 72
1
 41
1.0
 42
0.0
  1

  3
Standard
100
AcDb2LineAngularDimension
 13
2115.0
 23
280.0
 33
0.0
 14
2115.0
 24
880.0
 34
0.0
 15
2115.0
 25
280.0
 35
0.0
 16
2057.8549848942907374
 26
365.9365558912441543
 36
0.0
  0
DIMENSION
  5
7B
100
AcDbEntity
  8
dimensions2
 62
256
370
-1
  6
ByLayer
100
AcDbDimension
 10
1785.0
 20
50.0
 30
0.0
 11
0.0
 21
0.0
 31
0.0
 70
2
 71
5
 72
1
 41
1.0
 42
0.0
  1

  3
Standard
100
AcDb2LineAngularDimension
 13
1961.5858263715817884
 23
44.7649337697586631
 33
0.0
 14
2051.7957475239300038
 24
183.086812870025966
 34
0.0
 15
1965.0
 25
50.0
 35
0.0
 16
1864.1238670695142901
 26
129.1540785498508797
 36
0.0
  0
DIMENSION
  5
7C
100
AcDbEntity
  8
dimensions2
 62
256
370
-1
  6
ByLayer
100
AcDbDimension
 10
375.0
 20
1214.0483383685982517
 30
0.0
 11
212.5000000000000568
 21
1232.7983383685982517
 31
0.0
 70
0
 71
5
 72
1
 41
1.0
 42
0.0
  1

  3
Standard
100
AcDbAlignedDimension
 13
50.0000000000000355
 23
869.9999999999998863
 33
0.0
 14
375.0
 24
1090.0
 34
0.0
 50
0.0
100
AcDbRotatedDimension
  0
DIMENSION
  5
7D
100
AcDbEntity
  8
dimensions2
 62
256
370
-1
  6
ByLayer
100
AcDbDimension
 10
567.0
 20
1214.0483383685982517
 30
0.0
 11
471.0
 21
1232.7983383685982517
 31
0.0
 70
0
 71
5
 72
1
 41
1.0
 42
0.0
  1

  3
Standard
100
AcDbAlignedDimension
 13
375.0
 23
1090.0
 33
0.0
 14
567.0
 24
1090.0
 34
0.0
 50
0.0
100
AcDbRotatedDimension
  0
DIMENSION
  5
7E
100
AcDbEntity
  8
dimensions2
 62
256
370
-1
  6
ByLayer
100
AcDbDimension
 10
972.0
 20
1214.0483383685982517
 30
0.0
 11
769.5
 21
1232.7983383685982517
 31
0.0
 70
0
 71
5
 72
1
 41
1.0
 42
0.0
  1

  3
Standard
100
AcDbAlignedDimension
 13
567.0
 23
1090.0
 33
0.0
 14
972.0
 24
1090.0
 34
0.0
 50
0.0
100
AcDbRotatedDimension
  0
DIMENSION
  5
7F
100
AcDbEntity
  8
dimensions2
 62
256
370
-1
  6
ByLayer
100
AcDbDimension
 10
1169.0
 20
1214.0483383685982517
 30
0.0
 11
1070.5
 21
1232.7983383685982517
 31
0.0
 70
0
 71
5
 72
1
 41
1.0
 42
0.0
  1

  3
Standard
100
AcDbAlignedDimension
 13
972.0
 23
1090.0
 33
0.0
 14
1169.0
 24
1090.0
 34
0.0
 50
0.0
100
AcDbRotatedDimension
  0
DIMENSION
  5
80
100
AcDbEntity
  8
dimensions2
 62
256
370
-1
  6
ByLayer
100
AcDbDimension
 10
1577.0
 20
1214.0483383685982517
 30
0.0
 11
1373.0
 21
1232.7983383685982517
 31
0.0
 70
0
 71
5
 72
1
 41
1.0
 42
0.0
  1

  3
Standard
100
AcDbAlignedDimension
 13
1169.0
 23
1090.0
 33
0.0
 14
1577.0
 24
1090.0
 34
0.0
 50
0.0
100
AcDbRotatedDimension
  0
DIMENSION
  5
81
100
AcDbEntity
  8
dimensions2
 62
256
370
-1
  6
ByLayer
100
AcDbDimension
 10
1785.0
 20
1214.0483383685982517
 30
0.0
 11
1681.0
 21
1232.7983383685982517
 31
0.0
 70
0
 71
5
 72
1
 41
1.0
 42
0.0
  1

  3
Standard
100
AcDbAlignedDimension
 13
1577.0
 23
1090.0
 33
0.0
 14
1785.0
 24
1100.0
 34
0.0
 50
0.0
100
AcDbRotatedDimension
  0
DIMENSION
  5
82
100
AcDbEntity
  8
dimensions2
 62
256
370
-1
  6
ByLayer
100
AcDbDimension
 10
1985.0
 20
1214.0483383685982517
 30
0.0
 11
1885.0
 21
1232.7983383685982517
 31
0.0
 70
0
 71
5
 72
1
 41
1.0
 42
0.0
  1

  3
Standard
100
AcDbAlignedDimension
 13
1785.0
 23
1100.0
 33
0.0
 14
1985.0
 24
1100.0
 34
0.0
 50
0.0
100
AcDbRotatedDimension
  0
DIMENSION
  5
83
100
AcDbEntity
  8
dimensions2
 62
256
370
-1
  6
ByLayer
100
AcDbDimension
 10
2115.0
 20
1214.0483383685982517
 30
0.0
 11
2050.0
 21
1232.7983383685982517
 31
0.0
 70
0
 71
5
 72
1
 41
1.0
 42
0.0
  1

  3
Standard
100
AcDbAlignedDimension
 13
1985.0
 23
1100.0
 33
0.0
 14
2115.0
 24
880.0000000000003411
 34
0.0
 50
0.0
100
AcDbRotatedDimension
  0
DIMENSION
  5
84
100
AcDbEntity
  8
dimensions2
 62
256
370
-1
  6
ByLayer
100
AcDbDimension
 10
2115.0
 20
1308.7613293051556411
 30
0.0
 11
1082.5
 21
1327.5113293051556411
 31
0.0
 70
0
 71
5
 72
1
 41
1.0
 42
0.0
  1

  3
Standard
100
AcDbAlignedDimension
 13
50.0000000000000355
 23
869.9999999999998863
 33
0.0
 14
2115.0
 24
880.0000000000003411
 34
0.0
 50
0.0
100
AcDbRotatedDimension
  0
DIMENSION
  5
85
100
AcDbEntity
  8
dimensions2
 62
256
370
-1
  6
ByLayer
100
AcDbDimension
 10
2165.0
 20
1412.0845921450363676
 30
0.0
 11
1082.5
 21
1430.8345921450363676
 31
0.0
 70
0
 71
5
 72
1
 41
1.0
 42
0.0
  1

  3
Standard
100
AcDbAlignedDimension
 13
0.0
 23
1140.0
 33
0.0
 14
2165.0
 24
1140.0
 34
0.0
 50
0.0
100
AcDbRotatedDimension
  0
DIMENSION
  5
86
100
AcDbEntity
  8
dimensions2
 62
256
370
-1
  6
ByLayer
100
AcDbDimension
 10
2247.2809667674055163
 20
280.0
 30
0.0
 11
2228.5309667674055163
 21
580.0
 31
0.0
 70
0
 71
5
 72
1
 41
1.0
 42
0.0
  1

  3
Standard
100
AcDbAlignedDimension
 13
2115.0
 23
880.0
 33
0.0
 14
2115.0
 24
280.0
 34
0.0
 50
90.0
100
AcDbRotatedDimension
  0
DIMENSION
  5
87
100
AcDbEntity
  8
dimensions2
 62
256
370
-1
  6
ByLayer
100
AcDbDimension
 10
2350.6042296072860154
 20
49.9999999999999432
 30
0.0
 11
2331.8542296072860154
 21
575.0
 31
0.0
 70
0
 71
5
 72
1
 41
1.0
 42
0.0
  1

  3
Standard
100
AcDbAlignedDimension
 13
1985.0
 23
1100.0
 33
0.0
 14
1965.0
 24
50.0
 34
0.0
 50
90.0
100
AcDbRotatedDimension
  0
DIMENSION
  5
88
100
AcDbEntity
  8
dimensions2
 62
256
370
-1
  6
ByLayer
100
AcDbDimension
 10
1372.9999999999997726
 20
50.0
 30
0.0
 11
1354.2499999999997726
 21
570.0
 31
0.0
 70
0
 71
5
 72
1
 41
1.0
 42
0.0
  1

  3
Standard
100
AcDbAlignedDimension
 13
1373.0
 23
1090.0
 33
0.0
 14
1373.0
 24
50.0
 34
0.0
 50
90.0
100
AcDbRotatedDimension
  0
DIMENSION
  5
89
100
AcDbEntity
  8
dimensions2
 62
256
370
-1
  6
ByLayer
100
AcDbDimension
 10
769.4999999999998863
 20
50.0
 30
0.0
 11
750.7499999999998863
 21
570.0
 31
0.0
 70
0
 71
5
 72
1
 41
1.0
 42
0.0
  1

  3
Standard
100
AcDbAlignedDimension
 13
769.5
 23
1090.0
 33
0.0
 14
769.5
 24
50.0
 34
0.0
 50
90.0
100
AcDbRotatedDimension
  0
DIMENSION
  5
8A
100
AcDbEntity
  8
dimensions2
 62
256
370
-1
  6
ByLayer
100
AcDbDimension
 10
473.5649546827864924
 20
49.9999999999999716
 30
0.0
 11
454.8149546827864924
 21
570.0
 31
0.0
 70
0
 71
5
 72
1
 41
1.0
 42
0.0
  1

  3
Standard
100
AcDbAlignedDimension
 13
275.0
 23
1090.0
 33
0.0
 14
280.0
 24
50.0
 34
0.0
 50
90.0
100
AcDbRotatedDimension
  0
ENDSEC
  0
SECTION
  2
OBJECTS
  0
DICTIONARY
  5
C
100
AcDbDictionary
280
0
281
1
  3
ACAD_GROUP
350
D
  3
ACAD_LAYOUT
350
1A
  3
ACAD_MLINESTYLE
350
17
  3
ACAD_PLOTSETTINGS
350
19
  3
ACAD_PLOTSTYLENAME
350
E
  3
AcDbVariableDictionary
350
8B
  0
DICTIONARY
  5
D
100
AcDbDictionary
280
0
281
1
  0
ACDBDICTIONARYWDFLT
  5
E
100
AcDbDictionary
281
1
  3
Normal
350
F
100
AcDbDictionaryWithDefault
340
F
  0
ACDBPLACEHOLDER
  5
F
  0
DICTIONARY
  5
17
100
AcDbDictionary
280
0
281
1
  3
Standard
350
18
  0
MLINESTYLE
  5
18
100
AcDbMlineStyle
  2
STANDARD
 70
0
  3

 62
256
 51
90.0
 52
90.0
 71
2
 49
0.5
 62
256
  6
BYLAYER
 49
-0.5
 62
256
  6
BYLAYER
  0
DICTIONARY
  5
19
100
AcDbDictionary
280
0
281
1
  0
DICTIONARY
  5
1A
100
AcDbDictionary
281
1
  3
Layout1
350
1E
  3
Layout2
350
26
  3
Model
350
22
  0
LAYOUT
  5
1E
100
AcDbPlotSettings
  1

  2
C:\Program Files\AutoCAD 2002\plotters\DWF ePlot (optimized for plotting).pc3
  4

  6

 40
0.0
 41
0.0
 42
0.0
 43
0.0
 44
0.0
 45
0.0
 46
0.0
 47
0.0
 48
0.0
 49
0.0
140
0.0
141
0.0
142
1.0
143
1.0
 70
688
 72
0
 73
0
 74
5
  7

 75
16
147
1.0
148
0.0
149
0.0
100
AcDbLayout
  1
Layout1
 70
1
 71
1
 10
0.0
 20
0.0
 11
420.0
 21
297.0
 12
0.0
 22
0.0
 32
0.0
 14
100000000000000000000.0
 24
100000000000000000000.0
 34
100000000000000000000.0
 15
-100000000000000000000.0
 25
-100000000000000000000.0
 35
-100000000000000000000.0
146
0.0
 13
0.0
 23
0.0
 33
0.0
 16
1.0
 26
0.0
 36
0.0
 17
0.0
 27
1.0
 37
0.0
 76
0
330
1B
  0
LAYOUT
  5
22
100
AcDbPlotSettings
  1

  2
C:\Program Files\AutoCAD 2002\plotters\DWF ePlot (optimized for plotting).pc3
  4

  6

 40
0.0
 41
0.0
 42
0.0
 43
0.0
 44
0.0
 45
0.0
 46
0.0
 47
0.0
 48
0.0
 49
0.0
140
0.0
141
0.0
142
1.0
143
1.0
 70
1712
 72
0
 73
0
 74
0
  7

 75
0
147
1.0
148
0.0
149
0.0
100
AcDbLayout
  1
Model
 70
1
 71
0
 10
0.0
 20
0.0
 11
12.0
 21
9.0
 12
0.0
 22
0.0
 32
0.0
 14
0.0
 24
0.0
 34
0.0
 15
0.0
 25
0.0
 35
0.0
146
0.0
 13
0.0
 23
0.0
 33
0.0
 16
1.0
 26
0.0
 36
0.0
 17
0.0
 27
1.0
 37
0.0
 76
0
330
1F
  0
LAYOUT
  5
26
100
AcDbPlotSettings
  1

  2
C:\Program Files\AutoCAD 2002\plotters\DWF ePlot (optimized for plotting).pc3
  4

  6

 40
0.0
 41
0.0
 42
0.0
 43
0.0
 44
0.0
 45
0.0
 46
0.0
 47
0.0
 48
0.0
 49
0.0
140
0.0
141
0.0
142
1.0
143
1.0
 70
688
 72
0
 73
0
 74
5
  7

 75
16
147
1.0
148
0.0
149
0.0
100
AcDbLayout
  1
Layout2
 70
1
 71
2
 10
0.0
 20
0.0
 11
12.0
 21
9.0
 12
0.0
 22
0.0
 32
0.0
 14
0.0
 24
0.0
 34
0.0
 15
0.0
 25
0.0
 35
0.0
146
0.0
 13
0.0
 23
0.0
 33
0.0
 16
1.0
 26
0.0
 36
0.0
 17
0.0
 27
1.0
 37
0.0
 76
0
330
23
  0
DICTIONARY
  5
8B
100
AcDbDictionary
281
1
  3
DIMASSOC
350
8D
  3
HIDETEXT
350
8C
  0
DICTIONARYVAR
  5
8C
100
DictionaryVariables
280
0
  1
2
  0
DICTIONARYVAR
  5
8D
100
DictionaryVariables
280
0
  1
1
  0
ENDSEC
  0
EOF
